<?xml version="1.0" standalone="no"?>
<!DOCTYPE svg PUBLIC "-//W3C//DTD SVG 20010904//EN"
 "http://www.w3.org/TR/2001/REC-SVG-20010904/DTD/svg10.dtd">
<svg version="1.0" xmlns="http://www.w3.org/2000/svg"
 width="256.000000pt" height="256.000000pt" viewBox="0 0 256.000000 256.000000"
 preserveAspectRatio="xMidYMid meet">
<metadata>
Created by potrace 1.14, written by Peter Selinger 2001-2017
</metadata>
<g transform="translate(0.000000,256.000000) scale(0.100000,-0.100000)"
fill="#000000" stroke="none">
<path d="M1470 2478 c-36 -36 -113 -115 -172 -175 l-107 -108 150 -155 c82
-84 149 -157 149 -160 0 -4 -25 -32 -55 -63 l-55 -56 175 -175 c96 -97 177
-176 179 -176 3 0 25 20 50 44 l44 44 20 -21 c11 -12 79 -98 151 -192 72 -93
135 -175 139 -180 23 -28 204 -307 232 -357 17 -32 35 -58 38 -58 4 0 40 14
79 32 83 38 80 19 38 188 -65 260 -171 513 -342 812 l-48 83 47 45 c57 54 78
89 78 129 0 25 -21 51 -123 154 -152 154 -164 162 -212 148 -20 -5 -48 -22
-62 -37 -13 -14 -28 -23 -32 -18 -5 5 -46 52 -92 104 -46 52 -111 122 -144
155 l-60 60 -65 -67z"/>
<path d="M673 968 c-437 -438 -663 -671 -667 -688 -11 -59 -3 -74 91 -167 84
-84 97 -93 131 -93 20 0 48 8 63 18 14 9 317 310 675 667 l649 650 -137 138
c-76 75 -139 137 -140 137 -2 0 -301 -298 -665 -662z"/>
</g>
</svg>
